<svg height="512pt" viewBox="0 -50 512 512" width="512pt" xmlns="http://www.w3.org/2000/svg"><path d="m497 411.152344h-482c-8.285156 0-15-6.71875-15-15v-193.847656h512v193.847656c0 8.285156-6.714844 15-15 15zm0 0" fill="#0b9cff"/><path d="m512 252.976562h-512v-237.976562c0-8.285156 6.714844-15 15-15h482c8.285156 0 15 6.714844 15 15zm0 0" fill="#ffa511"/><g fill="#fff"><path d="m121.128906 67.4375c0 8.894531-7.207031 16.101562-16.101562 16.101562-8.894532 0-16.105469-7.207031-16.105469-16.101562s7.210937-16.105469 16.105469-16.105469c8.894531 0 16.101562 7.210938 16.101562 16.105469zm0 0"/><path d="m166.339844 67.4375c0 8.894531-7.207032 16.101562-16.101563 16.101562s-16.105469-7.207031-16.105469-16.101562 7.210938-16.105469 16.105469-16.105469 16.101563 7.210938 16.101563 16.105469zm0 0"/><path d="m166.339844 205.652344c0 8.894531-7.207032 16.105468-16.101563 16.105468s-16.105469-7.210937-16.105469-16.105468c0-8.894532 7.210938-16.101563 16.105469-16.101563s16.101563 7.207031 16.101563 16.101563zm0 0"/><path d="m75.917969 205.652344c0 8.894531-7.207031 16.105468-16.101563 16.105468-8.894531 0-16.105468-7.210937-16.105468-16.105468 0-8.894532 7.210937-16.101563 16.105468-16.101563 8.894532 0 16.101563 7.207031 16.101563 16.101563zm0 0"/></g><path d="m218.902344 118.066406c0 8.894532-7.210938 16.105469-16.105469 16.105469s-16.105469-7.210937-16.105469-16.105469c0-8.890625 7.210938-16.101562 16.105469-16.101562s16.105469 7.210937 16.105469 16.101562zm0 0" fill="#f96058"/><path d="m75.917969 37.046875c0 8.894531-7.207031 16.105469-16.101563 16.105469-8.894531 0-16.105468-7.210938-16.105468-16.105469s7.210937-16.105469 16.105468-16.105469c8.894532 0 16.101563 7.210938 16.101563 16.105469zm0 0" fill="#f96058"/><path d="m119.820312 163.3125c0 8.894531-7.207031 16.101562-16.101562 16.101562s-16.105469-7.207031-16.105469-16.101562 7.210938-16.105469 16.105469-16.105469 16.101562 7.210938 16.101562 16.105469zm0 0" fill="#f96058"/><path d="m496.277344 0h-239.117188v252.976562h254.839844v-237.253906c0-8.683594-7.039062-15.722656-15.722656-15.722656zm0 0" fill="#ffdc13"/><path d="m427.0625 202.304688v170.539062c0 8.515625-6.90625 15.421875-15.421875 15.421875h-411.640625v7.464844c0 8.515625 6.902344 15.421875 15.421875 15.421875h481.15625c8.519531 0 15.421875-6.90625 15.421875-15.421875v-193.425781zm0 0" fill="#0086f4"/><path d="m496.277344 0h-69.214844v252.976562h84.9375v-237.253906c0-8.683594-7.039062-15.722656-15.722656-15.722656zm0 0" fill="#ffa511"/><path d="m226.710938 303.726562h-23.914063v-97.929687c0-2.652344 2.148437-4.800781 4.796875-4.800781h14.320312c2.652344 0 4.800782 2.148437 4.800782 4.800781v97.929687zm0 0" fill="#f96058"/><path d="m318.265625 343.488281h-153.546875v-50.449219c0-3.539062 2.867188-6.40625 6.40625-6.40625h140.730469c3.539062 0 6.410156 2.867188 6.410156 6.40625zm0 0" fill="#ffdc13"/><path d="m311.675781 286.632812h-26.507812v48.523438h-120.449219v8.332031h153.546875v-50.269531c0-3.636719-2.949219-6.585938-6.589844-6.585938zm0 0" fill="#ffa511"/><path d="m387.816406 369.414062h-261.6875c-2.691406 0-5.007812-1.902343-5.527344-4.542968l-8.507812-42.882813c-.691406-3.484375 1.976562-6.734375 5.527344-6.734375h284.371094c3.84375 0 6.558593 3.761719 5.351562 7.40625l-14.175781 42.886719c-.765625 2.308594-2.921875 3.867187-5.351563 3.867187zm0 0" fill="#ffdc13"/><path d="m401.992188 315.253906h-32.335938l-9.585938 28.996094c-.761718 2.308594-2.921874 3.867188-5.351562 3.867188h-237.441406l3.320312 16.753906c.523438 2.640625 2.839844 4.542968 5.53125 4.542968h261.6875c2.429688 0 4.585938-1.558593 5.351563-3.867187l14.175781-42.886719c1.207031-3.644531-1.507812-7.40625-5.351562-7.40625zm0 0" fill="#ffa511"/><path d="m472.167969 114.253906h-16.605469c-3.257812-34.464844-30.574219-62.027344-64.929688-65.660156v-15.871094c0-4.269531-3.457031-7.726562-7.726562-7.726562-4.265625 0-7.726562 3.457031-7.726562 7.726562v15.871094c-34.355469 3.632812-61.671876 31.195312-64.929688 65.660156h-16.601562c-4.265626 0-7.722657 3.457032-7.722657 7.726563 0 4.265625 3.457031 7.722656 7.722657 7.722656h16.78125c3.945312 33.710937 30.933593 60.476563 64.753906 64.050781v17.484375c0 4.265625 3.457031 7.726563 7.726562 7.726563 4.265625 0 7.726563-3.460938 7.726563-7.726563v-17.484375c33.816406-3.574218 60.804687-30.339844 64.75-64.050781h16.78125c4.269531 0 7.726562-3.457031 7.726562-7.722656 0-4.269531-3.460937-7.726563-7.726562-7.726563zm-32.148438 0h-20.386719c-2.78125-14.800781-14.3125-26.554687-29-29.652344v-20.4375c25.828126 3.484376 46.261719 24.152344 49.386719 50.089844zm-64.835937 0h-13.066406c2.085937-6.257812 6.917968-11.25 13.066406-13.574218zm0 15.449219v11.964844c-5.613282-2.121094-10.140625-6.457031-12.472656-11.964844zm15.449218 0h12.472657c-2.332031 5.503906-6.863281 9.84375-12.472657 11.964844zm0-15.449219v-13.574218c6.144532 2.324218 10.976563 7.316406 13.066407 13.574218zm-15.449218-50.089844v20.4375c-14.691406 3.101563-26.21875 14.851563-29 29.652344h-20.386719c3.125-25.9375 23.558594-46.605468 49.386719-50.089844zm-49.179688 65.539063h20.519532c3.289062 14.039063 14.507812 25.054687 28.65625 28.042969v20.433594c-25.285157-3.410157-45.417969-23.296876-49.175782-48.476563zm64.628906 48.476563v-20.433594c14.152344-2.988282 25.371094-14.003906 28.660157-28.042969h20.519531c-3.757812 25.179687-23.890625 45.066406-49.179688 48.476563zm0 0" fill="#0b9cff"/><path d="m472.167969 114.253906h-16.605469c-1.96875-20.820312-12.722656-39.113281-28.5-51.140625v21.230469c6.945312 8.3125 11.59375 18.609375 12.953125 29.910156h-12.953125v15.453125h12.75c-1.59375 10.667969-6.132812 20.378907-12.75 28.296875v21.238282c15.367188-11.71875 25.964844-29.382813 28.324219-49.535157h16.78125c4.265625 0 7.726562-3.460937 7.726562-7.726562s-3.460937-7.726563-7.726562-7.726563zm0 0" fill="#0086f4"/></svg>