<?xml version="1.0" encoding="iso-8859-1"?>
<!-- Generator: Adobe Illustrator 19.0.0, SVG Export Plug-In . SVG Version: 6.00 Build 0)  -->
<svg version="1.1" id="Capa_1" xmlns="http://www.w3.org/2000/svg" xmlns:xlink="http://www.w3.org/1999/xlink" x="0px" y="0px"
	 viewBox="0 0 512 512" style="enable-background:new 0 0 512 512;" xml:space="preserve">
<path style="fill:#85E374;" d="M256,10C123.45,10,10,123.45,10,256s113.45,246,246,246s246-113.45,246-246S388.55,10,256,10z"/>
<path style="fill:#FED984;" d="M256,176c-44.11,0-80,35.89-80,80s35.89,80,80,80s80-35.89,80-80S300.11,176,256,176z"/>
<g>
	<path style="fill:#E6EFFF;" d="M154.86,126.63c6.95,7.86,6.66,19.86-0.85,27.38c-7.52,7.51-19.52,7.8-27.38,0.85
		c-0.31-0.27-0.61-0.55-0.91-0.85c-7.81-7.82-7.81-20.48,0-28.29s20.47-7.81,28.29,0C154.31,126.02,154.59,126.32,154.86,126.63z"/>
	<path style="fill:#E6EFFF;" d="M154.01,357.99c7.51,7.52,7.8,19.52,0.85,27.38c-0.27,0.31-0.55,0.61-0.85,0.91
		c-7.82,7.81-20.48,7.81-28.29,0s-7.81-20.47,0-28.29c0.3-0.3,0.6-0.58,0.91-0.85C134.49,350.19,146.49,350.48,154.01,357.99z"/>
</g>
<path d="M409.01,256c0,5.535,4.454,9.987,9.99,9.987c5.535,0,9.99-4.452,9.99-9.987c0-5.53-4.452-9.99-9.99-9.99
	C413.47,246.01,409.01,250.462,409.01,256z"/>
<path d="M256,512c137.902,0,256-117.693,256-256C512,118.087,394.298,0,256,0C118.098,0,0,117.693,0,256
	C0,393.913,117.702,512,256,512z M20.238,266h63.054c1.858,32.821,12.771,65.112,30.739,90.877
	c-6.789,11.506-5.25,26.605,4.618,36.475c9.809,9.808,24.893,11.451,36.474,4.619c25.765,17.968,58.056,28.88,90.877,30.739v63.054
	C125.814,486.458,25.542,386.186,20.238,266z M146.944,132.797c3.865,3.851,3.916,10.216-0.001,14.138
	c-3.903,3.898-10.25,3.907-14.148,0.009c-3.9-3.905-3.902-10.254-0.004-14.152C136.678,128.903,143.029,128.885,146.944,132.797z
	 M129.443,167.996c10.659,3.93,23.118,1.593,31.642-6.92c8.497-8.507,10.849-20.968,6.915-31.636
	c22.224-15.096,49.828-24.337,78-26.121v63.239c-41.652,4.626-74.815,37.789-79.441,79.441H103.32
	C105.104,217.826,114.346,190.221,129.443,167.996z M246,266v59.274c-30.609-4.399-54.875-28.666-59.274-59.274H246z M186.726,246
	c4.399-30.608,28.666-54.875,59.274-59.274V246H186.726z M266,265.9h59.274c-4.399,30.608-28.666,54.975-59.274,59.374V265.9z
	 M266,246v-59.274c30.609,4.399,54.875,28.666,59.274,59.274H266z M166.559,266c4.626,41.652,37.789,74.815,79.441,79.441v63.239
	c-28.176-1.784-55.783-11.027-78.009-26.127c3.939-10.684,1.581-23.132-6.915-31.638c-8.499-8.489-20.947-10.844-31.629-6.906
	c-15.1-22.226-24.343-49.833-26.127-78.009L166.559,266L166.559,266z M133.253,364.632c3.969-3.51,9.981-3.27,13.681,0.425
	c3.729,3.734,3.92,9.747,0.39,13.74c-3.62,4.162-10.378,4.567-14.532,0.412C128.801,375.218,128.839,368.527,133.253,364.632z
	 M491.762,246H459c-5.523,0-10,4.478-10,10s4.477,9.9,10,9.9h32.762C486.458,386.086,386.186,486.458,266,491.762v-63.078
	c74.579-4.619,139.605-59.491,157.729-130.521c1.366-5.352-1.866-10.797-7.217-12.162c-5.354-1.367-10.797,1.865-12.162,7.217
	C388.34,355.965,329.915,404.039,266,408.635v-63.194c41.652-4.626,74.815-37.789,79.441-79.441H376c5.523,0,10-4.478,10-10
	s-4.477-10-10-10h-30.559c-4.626-41.652-37.789-74.815-79.441-79.441v-63.194c63.915,4.596,122.34,52.67,138.351,115.417
	c1.371,5.374,6.835,8.578,12.162,7.217c5.351-1.365,8.583-6.811,7.217-12.162C405.622,142.874,340.651,87.939,266,83.316V20.238
	C386.186,25.542,486.458,125.814,491.762,246z M246,20.238v63.054c-32.821,1.858-65.112,12.771-90.877,30.739
	c-11.507-6.788-26.605-5.248-36.474,4.618c-9.868,9.868-11.408,24.966-4.618,36.474C96.062,180.887,85.149,213.179,83.291,246
	H20.238C25.542,125.814,125.814,25.542,246,20.238z"/>
<g>
</g>
<g>
</g>
<g>
</g>
<g>
</g>
<g>
</g>
<g>
</g>
<g>
</g>
<g>
</g>
<g>
</g>
<g>
</g>
<g>
</g>
<g>
</g>
<g>
</g>
<g>
</g>
<g>
</g>
</svg>
