<svg height="512pt" viewBox="0 0 512 512" width="512pt" xmlns="http://www.w3.org/2000/svg"><path d="m256 0c-140.699219 0-256 115.300781-256 256s115.300781 256 256 256 256-115.300781 256-256-115.300781-256-256-256zm0 0" fill="#8cf2f2"/><path d="m512 256c0 140.699219-115.300781 256-256 256v-512c140.699219 0 256 115.300781 256 256zm0 0" fill="#57d9d4"/><path d="m482 256c0 124.199219-101.800781 226-226 226s-226-101.800781-226-226 101.800781-226 226-226c56.101562 0 107.699219 22 147 56.199219zm0 0" fill="#26bfbf"/><path d="m482 256c0 124.199219-101.800781 226-226 226v-452c56.101562 0 107.699219 22 147 56.199219zm0 0" fill="#1a9ea6"/><path d="m403.046875 86.078125-147.046875 169.921875h226c0-67.847656-31.3125-128.632812-78.953125-169.921875zm0 0" fill="#57d9d4"/><path d="m30 91h-30v-91h91v30h-61zm0 0" fill="#596c76"/><path d="m91 512h-91v-91h30v61h61zm0 0" fill="#596c76"/><path d="m512 91h-30v-61h-61v-30h91zm0 0" fill="#465a61"/><path d="m512 512h-91v-30h61v-61h30zm0 0" fill="#465a61"/><path d="m329.496094 271h167.503906v-30h-226v-118.59375c26.566406 2.855469 52.179688 13.308594 72.898438 30.996094l19.5-22.5c-25.859376-22.207032-58.773438-35.082032-92.398438-38.234375v-77.667969h-30v77.453125c-26.765625 2.140625-53.144531 10.675781-75.902344 25.847656l16.503906 25.199219c17.9375-11.878906 38.421876-18.855469 59.398438-21.097656v60.101562c-29.375 5.972656-52.527344 29.125-58.496094 58.496094h-60.671875c2.363281-21.222656 9.746094-41.398438 21.664063-59.398438l-25.199219-16.5c-14.949219 22.808594-24.09375 48.835938-26.582031 75.898438h-76.714844v30h76.691406c7.167969 78.96875 70.339844 142.140625 149.308594 149.308594v76.691406h30v-76.714844c27.0625-2.488281 53.089844-11.632812 75.902344-26.585937l-16.503906-25.199219c-18.003907 11.921875-38.175782 19.300781-59.398438 21.667969v-60.671875c29.371094-5.972656 52.523438-29.125 58.496094-58.496094zm-31.054688 0c-4.511718 12.804688-14.636718 22.929688-27.441406 27.441406v-27.441406zm-57.441406 27.441406c-12.804688-4.511718-22.929688-14.636718-27.441406-27.441406h27.441406zm0-84.882812v27.441406h-27.441406c4.511718-12.804688 14.636718-22.929688 27.441406-27.441406zm-119.160156 57.441406h60.664062c5.972656 29.371094 29.125 52.523438 58.496094 58.496094v60.664062c-62.445312-6.945312-112.214844-56.714844-119.160156-119.160156zm0 0" fill="#8cf2f2"/><path d="m256 497h15v-76.714844c27.0625-2.488281 53.089844-11.632812 75.902344-26.585937l-16.503906-25.199219c-18.003907 11.921875-38.175782 19.300781-59.398438 21.667969v-60.671875c29.371094-5.972656 52.523438-29.125 58.496094-58.496094h60.671875c-2.355469 21.199219-9.695313 41.5-21.578125 59.414062l24.988281 16.582032c15.164063-22.855469 24.257813-48.875 26.71875-75.996094h76.703125v-30h-208.398438l134.976563-157.472656-22.765625-19.511719-49.382812 57.613281c-23.683594-16.539062-51.796876-26.277344-80.429688-28.964844v-77.664062h-15v256m15-148.59375c21.664062 2.328125 42.695312 9.710938 60.953125 21.945312l-60.953125 71.113282zm0 176.035156v-27.441406h27.441406c-4.511718 12.804688-14.636718 22.929688-27.441406 27.441406zm0 0" fill="#57d9d4"/><path d="m361 406c-24.8125 0-45-20.1875-45-45s20.1875-45 45-45 45 20.1875 45 45-20.1875 45-45 45zm0 0" fill="#f03800"/><path d="m151 196c-24.8125 0-45-20.1875-45-45s20.1875-45 45-45 45 20.1875 45 45-20.1875 45-45 45zm0 0" fill="#ff641a"/></svg>