<svg id="Capa_1" enable-background="new 0 0 512 512" height="512" viewBox="0 0 512 512" width="512" xmlns="http://www.w3.org/2000/svg"><g><path d="m512 256c0 141.385-114.615 256-256 256s-256-114.615-256-256 114.615-256 256-256c39.487 0 76.884 8.934 110.279 24.91h.01c47.449 22.685 86.821 59.559 112.619 105.127 1.097 1.933 2.163 3.877 3.208 5.831 1.411 2.654 2.779 5.329 4.096 8.035 16.52 33.855 25.788 71.889 25.788 112.097z" fill="#9bd069"/><path d="m482.113 135.869-226.115 120.131 110.278-231.088h.01c49.455 23.646 90.143 62.704 115.827 110.957z" fill="#bcdf95"/><path d="m255.995 395.791c-76.341 0-138.448-62.108-138.448-138.448 0-76.341 62.108-138.448 138.448-138.448s138.448 62.107 138.448 138.448c0 76.34-62.108 138.448-138.448 138.448zm0-261.223c-67.698 0-122.775 55.077-122.775 122.775s55.077 122.774 122.775 122.774 122.774-55.077 122.774-122.774-55.076-122.775-122.774-122.775z" fill="#528e61"/><path d="m255.995 333.097c-41.771 0-75.755-33.983-75.755-75.755s33.983-75.755 75.755-75.755 75.755 33.983 75.755 75.755-33.984 75.755-75.755 75.755zm0-135.835c-33.129 0-60.081 26.953-60.081 60.081s26.953 60.081 60.081 60.081 60.081-26.953 60.081-60.081-26.953-60.081-60.081-60.081z" fill="#528e61"/><circle cx="255.995" cy="188.084" fill="#bcddc8" r="28.866"/><circle cx="153.581" cy="333.414" fill="#bcddc8" r="28.866"/><path d="m255.995 458.484c-110.91 0-201.141-90.232-201.141-201.141s90.231-201.141 201.141-201.141 201.141 90.232 201.141 201.141-90.231 201.141-201.141 201.141zm0-386.609c-102.267 0-185.468 83.201-185.468 185.468s83.201 185.468 185.468 185.468 185.468-83.201 185.468-185.468-83.201-185.468-185.468-185.468z" fill="#528e61"/><path d="m486.212 143.903-226.544 120.362c-1.17.616-2.424.92-3.668.92-2.8 0-5.517-1.515-6.928-4.169-2.027-3.814-.575-8.558 3.25-10.595l226.586-120.383c1.097 1.933 2.163 3.877 3.208 5.831 1.411 2.653 2.779 5.328 4.096 8.034z" fill="#457a52"/><g fill="#bcddc8"><circle cx="449.3" cy="256.001" r="28.866"/><circle cx="106.461" cy="135.356" r="28.866"/></g></g></svg>