<svg id="Capa_1" enable-background="new 0 0 512 512" height="512" viewBox="0 0 512 512" width="512" xmlns="http://www.w3.org/2000/svg"><g><g><path d="m170.35 13.581c50.952-24.425 77.956 36.517 81.074 82.163s-2.079 78.105 19.749 82.163c21.827 4.057 42.616-35.502 50.931-67.962 8.315-32.459 33.261-90.278 68.601-72.019 35.34 18.258 11.434 55.789-9.355 76.077-20.788 20.287-68.601 61.876-36.379 85.206s57.167-3.043 90.428-15.215c33.261-12.173 68.601-2.671 68.601 24.53s-67.561 13-92.507 34.301-19.749 38.545-5.197 49.703 106.135 51.298 84.192 89.263c-19.813 34.279-57.516-.169-76.737-18.819-24.928-24.187-55.268-47.115-76.576-16.684s14.032 98.393 0 132.881-59.262 25.978-71.79 0c-14.242-29.531 41.128-89.263 17.222-118.68-23.906-29.416-53.01 30.431-68.601 59.847s-26.473 97.813-69.64 81.056c-46.004-17.857-19.318-78.666 7.276-97.286 30.462-21.328 56.128-48.689 43.655-74.048s-65.483-8.115-98.744 17.244-85.231 14.201-88.35-17.244 30.143-45.646 71.719-38.546 88.35 14.201 99.783-14.201c11.434-28.402-50.931-34.488-94.586-48.689s-62.823-39.097-43.655-65.933c16.954-23.737 65.483-6.086 98.744 26.373s67.561 26.373 75.877 10.144c8.315-16.23 0-62.89-41.576-96.364s-30.447-76.659-4.159-89.261z" fill="#91daf6"/><path d="m170.35 13.581c50.952-24.425 77.956 36.517 81.074 82.163s-2.079 78.105 19.749 82.163c21.827 4.057 42.616-35.502 50.931-67.962 8.315-32.459 33.261-90.278 68.601-72.019 35.34 18.258 11.434 55.789-9.355 76.077-20.788 20.287-68.601 61.876-36.379 85.206s57.167-3.043 90.428-15.215c33.261-12.173 68.601-2.671 68.601 24.53s-67.561 13-92.507 34.301-19.749 38.545-5.197 49.703 106.135 51.298 84.192 89.263c-19.813 34.279-57.516-.169-76.737-18.819-24.928-24.187-55.268-47.115-76.576-16.684s14.032 98.393 0 132.881-59.262 25.978-71.79 0c-14.242-29.531 41.128-89.263 17.222-118.68-23.906-29.416-53.01 30.431-68.601 59.847s-26.473 97.813-69.64 81.056c-46.004-17.857-19.318-78.666 7.276-97.286 30.462-21.328 56.128-48.689 43.655-74.048s-65.483-8.115-98.744 17.244-85.231 14.201-88.35-17.244 30.143-45.646 71.719-38.546 88.35 14.201 99.783-14.201c11.434-28.402-50.931-34.488-94.586-48.689s-62.823-39.097-43.655-65.933c16.954-23.737 65.483-6.086 98.744 26.373s67.561 26.373 75.877 10.144c8.315-16.23 0-62.89-41.576-96.364s-30.447-76.659-4.159-89.261z" fill="#91daf6"/><g fill="#72d0ed"><path d="m174.508 102.844c27.76 22.35 40.677 50.568 43.731 71.692 3.826-20.018-6.883-60.026-43.731-89.692-16.071-12.939-24.261-27.329-26.751-40.843-3.419 17.859 3.229 39.905 26.751 58.843z"/><path d="m195.296 330.06c.783 1.592 1.415 3.193 1.906 4.799 2.115-7.636 1.78-15.305-1.906-22.799-12.473-25.359-65.483-8.115-98.744 17.244-31.412 23.949-79.503 15.325-87.38-12.195-1.072 3.923-1.437 8.239-.97 12.951 3.118 31.445 55.089 42.603 88.35 17.244 33.262-25.359 86.271-42.603 98.744-17.244z"/><path d="m381.35 96.002c-17.831 17.401-55.54 50.473-45.575 74.254 6.676-20.473 31.939-42.946 45.575-56.254 15.289-14.92 32.262-39.167 26.115-58.215-3.804 14.651-15.375 29.734-26.115 40.215z"/><path d="m85.119 210.624c-27.192-7.995-44.736-21.024-49.684-36.136-6.887 22.196 12.511 42.044 49.684 54.136 41.387 13.463 99.579 19.636 95.773 44.442 11.433-28.401-25.598-41.809-95.773-62.442z"/><path d="m411.493 224.825c-17.254 11.883-20.062 25.84-15.303 36.999 2.508-5.881 7.381-12.235 15.303-18.999 24.946-21.301 92.507-7.1 92.507-34.301 0-3.898-.747-7.42-2.089-10.58-11.364 17.677-66.265 10.246-90.418 26.881z"/><path d="m490.488 363.792c-19.813 34.279-57.516-.169-76.737-18.819-24.928-24.187-55.268-47.115-76.576-16.684-6.688 9.551-7.794 22.8-6.599 37.55.792-7.447 2.784-14.102 6.599-19.55 21.308-30.431 51.647-7.503 76.576 16.684 19.221 18.65 56.924 53.098 76.737 18.819 4.109-7.108 4.236-14.293 1.636-21.349-.454 1.117-.992 2.234-1.636 3.349z"/><path d="m337.175 461.17c-14.032 34.488-59.262 25.978-71.79 0-.522-1.082-.94-2.202-1.284-3.349-1.628 8.031-1.624 15.32 1.284 21.349 12.529 25.978 57.759 34.488 71.79 0 3.447-8.472 3.911-18.966 2.971-30.426-.492 4.481-1.436 8.654-2.971 12.426z"/><path d="m282.606 360.491c2.719 3.345 4.403 7.086 5.29 11.127 1.129-8.983-.153-17.23-5.735-24.099-23.906-29.416-57.242 26.484-74.446 63.852-14.397 31.271-23.648 85.243-63.35 72.023-14.619-4.868-21.992-14.366-24.409-25.694-2.541 18.13 3.219 35.469 24.409 43.694 43.168 16.756 54.049-51.64 69.64-81.056 15.591-29.417 44.695-89.264 68.601-59.847z"/></g><path d="m437.147 135.376s-4.136-32.546 11.796-48.477c10.129-10.129 26.552-10.129 36.682 0 10.129 10.129 10.129 26.552 0 36.682-15.933 15.931-48.478 11.795-48.478 11.795z" fill="#91daf6"/><path d="m485.624 105.58c-14.134 14.134-42.482 13.633-48.705 13.34-.684 9.27.228 16.456.228 16.456s32.546 4.136 48.477-11.796c7.393-7.393 9.384-18.136 5.985-27.341-1.258 3.407-3.248 6.604-5.985 9.341z" fill="#72d0ed"/><path d="m119.612 110.621s-40.724 5.176-60.659-14.76c-12.675-12.675-12.675-33.225 0-45.899s33.225-12.675 45.9 0c19.935 19.935 14.759 60.659 14.759 60.659z" fill="#91daf6"/><path d="m58.953 77.862c-4.024-4.024-6.765-8.843-8.234-13.95-3.158 10.98-.417 23.299 8.234 31.95 19.935 19.935 60.659 14.76 60.659 14.76s.923-7.267.488-17.164c-10.43.603-44.397 1.153-61.147-15.596z" fill="#72d0ed"/><path d="m92.911 399.524s5.176 40.724-14.76 60.659c-12.675 12.675-33.225 12.675-45.9 0s-12.675-33.225 0-45.9c19.936-19.935 60.66-14.759 60.66-14.759z" fill="#91daf6"/><path d="m78.151 442.183c-12.675 12.675-33.225 12.675-45.9 0-4.024-4.024-6.765-8.842-8.234-13.95-3.158 10.98-.417 23.299 8.234 31.95 12.675 12.675 33.225 12.675 45.9 0 16.784-16.784 15.769-48.3 15.028-57.846-.989 13.052-4.518 29.337-15.028 39.846z" fill="#72d0ed"/><path d="m399.837 430.39s35.592-4.523 53.015 12.9c11.078 11.078 11.078 29.038 0 40.115-11.077 11.078-29.038 11.078-40.115 0-17.424-17.423-12.9-53.015-12.9-53.015z" fill="#91daf6"/><path d="m452.852 465.405c-11.077 11.078-29.038 11.078-40.115 0-8.884-8.884-12.056-22.485-13.038-33.689-.609 6.567-2.401 36.251 13.038 51.689 11.078 11.078 29.038 11.078 40.115 0 7.86-7.86 10.137-19.185 6.842-29.058-1.349 4.042-3.625 7.841-6.842 11.058z" fill="#72d0ed"/></g><g><path d="m91.685 341.495c-19.565 14.916-44.497 14.738-59.388 8.262-5.888-2.562-15.941-8.606-17.101-20.306-.858-8.648 1.63-15.757 7.394-21.131 10.707-9.98 31.537-13.475 55.721-9.344 39.738 6.787 94.162 16.083 108.214-18.831 2.668-6.629 2.535-13.177-.385-18.938-8.059-15.894-35.029-22.769-66.258-30.73-11.097-2.829-22.573-5.754-32.774-9.073-24.505-7.972-40.89-19.626-44.956-31.974-2.328-7.072-.644-14.668 5.006-22.578 3.252-4.554 8.188-7.066 15.087-7.68 19.705-1.751 49.505 12.689 72.485 35.117 19.586 19.114 42.349 28.193 62.47 24.902 11.75-1.921 21.042-8.004 25.492-16.69 10.709-20.902-.709-71.279-43.633-105.839-24.065-19.376-25.729-38.909-24.579-48.827 1.432-12.346 8.693-23.069 18.95-27.986 13.294-6.374 24.843-6.508 35.301-.41 21.441 12.5 33.269 48.405 35.187 76.476.681 9.977.968 19.536 1.219 27.97.952 31.825 1.704 56.963 24.692 61.236 7.903 1.471 20.123-.299 33.497-17.058 7.941-9.953 15.467-24.258 21.189-40.28 1.396-3.909-.64-8.209-4.549-9.605-3.902-1.395-8.208.64-9.604 4.549-10.605 29.687-26.484 49.72-37.786 47.617-10.582-1.967-11.535-17.438-12.417-46.909-.255-8.568-.546-18.28-1.248-28.544-2.251-32.967-16.3-73.097-42.61-88.435-14.669-8.552-31.741-8.608-49.368-.158-14.869 7.128-25.361 22.382-27.382 39.809-2.564 22.113 8.401 44.808 30.083 62.265 41.377 33.316 45.208 76.491 39.682 87.278-2.217 4.328-7.654 7.584-14.541 8.71-7.266 1.188-26.634 1.536-49.548-20.826-26.302-25.67-60.181-41.475-84.313-39.331-11.211.997-20.197 5.809-25.987 13.915-8.466 11.854-10.904 24.307-7.05 36.014 5.743 17.445 24.616 31.819 54.581 41.568 10.666 3.469 22.382 6.456 33.711 9.344 24.183 6.165 51.591 13.151 56.566 22.962.643 1.267 1.205 3.154-.152 6.528-8.8 21.859-48.418 17.028-91.743 9.628-29.209-4.987-54.173-.189-68.499 13.165-9.241 8.615-13.426 20.237-12.101 33.608 1.401 14.126 10.9 26.01 26.064 32.605 8.565 3.726 18.016 5.536 27.604 5.536 16.529 0 33.456-5.386 46.89-15.629 3.3-2.516 3.936-7.232 1.42-10.533-2.517-3.299-7.235-3.935-10.533-1.419z"/><path d="m460.337 316.5c-3.423-2.346-8.1-1.472-10.446 1.952s-1.473 8.101 1.951 10.447c13.839 9.483 23.716 18.352 29.358 26.361 8.143 11.56 5.75 18.668 3.241 23.008-3.733 6.459-8.139 9.959-13.469 10.7-17.078 2.373-42.217-22.009-51.679-31.19-18.134-17.596-39.55-35.312-60.709-33.297-10.691 1.016-19.911 6.959-27.405 17.663-13.214 18.873-8.039 47.904-3.035 75.98 3.907 21.924 7.948 44.593 2.23 58.648-6.214 15.275-18.624 17.917-25.468 18.133-13.594.412-27.339-7.381-32.733-18.565-5.125-10.628 2.722-29.721 10.312-48.186 10.184-24.778 21.728-52.862 6.006-72.209-7.952-9.786-16.373-11.166-22.019-10.603-20.925 2.086-38.643 32.693-56.453 66.598-.951 1.812-1.864 3.55-2.735 5.193-3.842 7.248-7.293 16.4-10.947 26.089-8.071 21.402-17.221 45.659-31.663 52.108-5.198 2.321-11.023 2.17-17.807-.463-11.849-4.6-18.563-12.767-19.954-24.275-2.541-21.031 13.127-49.047 28.835-60.046 29.632-20.748 61.698-52.107 46.174-83.67-4.021-8.176-13.392-17.699-35.133-16.588-13.285.673-29.648 5.444-46.073 13.432-.786.382-1.57.771-2.351 1.165-3.704 1.872-5.19 6.392-3.319 10.097 1.872 3.704 6.391 5.19 10.096 3.319.714-.361 1.43-.716 2.148-1.065 24.476-11.904 54.053-18.15 61.146-3.727 4.514 9.176 2.813 19.335-5.199 31.055-7.295 10.672-19.443 22-36.109 33.669-19.634 13.748-38.438 46.829-35.134 74.161 2.078 17.199 12.257 29.815 29.435 36.483 5.359 2.08 10.543 3.121 15.515 3.121 4.83 0 9.461-.982 13.858-2.945 20.165-9.004 30.49-36.378 39.599-60.528 3.481-9.23 6.769-17.948 10.164-24.354.879-1.658 1.8-3.412 2.761-5.241 9.748-18.559 30.032-57.176 44.637-58.632 1.869-.188 4.816.143 8.865 5.126 10.089 12.415.769 35.088-8.244 57.015-9.25 22.504-17.987 43.761-9.949 60.429 7.98 16.547 27.198 27.66 46.744 27.059 17.853-.562 32.038-10.582 38.917-27.491 7.355-18.078 2.927-42.923-1.355-66.95-4.466-25.054-9.084-50.962.55-64.721 4.922-7.029 10.324-10.732 16.517-11.321 15.36-1.463 35.216 15.921 48.821 29.122 18.334 17.79 39.548 35.601 59.695 35.599 1.512 0 3.022-.101 4.521-.309 10.079-1.402 18.293-7.48 24.41-18.066 4.86-8.409 8.117-22.033-3.966-39.186-6.773-9.611-17.616-19.458-33.152-30.104z"/><path d="m497.174 180.172c-15.303-10.696-40.428-12.03-64.006-3.399-8.972 3.283-17.165 7.446-25.089 11.472-22.202 11.281-38.241 19.432-58.527 4.744-4.941-3.579-7.396-7.459-7.725-12.213-1.198-17.326 24.59-42.073 39.998-56.858 1.791-1.719 3.478-3.338 5.018-4.841 7.859-7.67 33.2-34.709 29.333-60.62-1.211-8.118-5.97-19.508-21.758-27.665-9.952-5.142-19.952-5.735-29.724-1.758-10.4 4.233-30.167 18.314-45.706 65.063-1.309 3.939.822 8.193 4.76 9.502 3.944 1.307 8.192-.823 9.502-4.761 9.815-29.529 23.688-50.42 37.11-55.883 5.593-2.276 11.204-1.887 17.161 1.189 8.257 4.266 12.768 9.674 13.792 16.53 2.239 14.999-12.049 35.04-24.965 47.645-1.513 1.476-3.169 3.066-4.928 4.753-18.425 17.681-46.268 44.4-44.585 68.74.641 9.277 5.319 17.134 13.904 23.35 27.719 20.072 51.323 8.08 74.15-3.518 7.53-3.827 15.317-7.783 23.445-10.758 18.819-6.887 39.005-6.242 50.232 1.605 5.578 3.898 8.406 9.255 8.406 15.919 0 1.651 0 4.723-8.04 7.587-7.136 2.542-17.428 3.778-28.326 5.086-20.007 2.403-40.696 4.887-53.687 15.982-13.625 11.635-20.378 23.473-20.069 35.185.257 9.792 5.503 18.886 15.169 26.298 3.214 2.465 8.785 5.638 16.494 10.03 2.591 1.476 5.38 3.065 8.299 4.755 1.185.686 2.479 1.012 3.757 1.012 2.594 0 5.118-1.345 6.511-3.752 2.079-3.592.852-8.19-2.74-10.269-2.951-1.708-5.77-3.314-8.388-4.806-6.648-3.787-12.388-7.058-14.789-8.898-6.028-4.623-9.154-9.591-9.29-14.766-.181-6.857 4.938-14.935 14.804-23.359 9.536-8.143 28.759-10.452 45.72-12.489 11.754-1.412 22.858-2.745 31.575-5.851 8.224-2.93 18.027-9.08 18.027-21.746.001-11.526-5.264-21.555-14.825-28.237z"/><path d="m436.554 142.57c.48.061 4.484.546 10.305.546 12.124 0 32.124-2.102 44.527-14.506 6.329-6.328 9.814-14.742 9.814-23.692s-3.485-17.364-9.813-23.692c-13.064-13.063-34.318-13.062-47.382 0-18.357 18.359-14.148 53.356-13.96 54.837.434 3.398 3.11 6.075 6.509 6.507zm18.079-50.716c7.206-7.204 18.924-7.202 26.127-.001 3.489 3.49 5.411 8.129 5.411 13.064s-1.922 9.574-5.412 13.064c-8.815 8.816-25.774 10.358-36.218 10.094-.264-10.436 1.277-27.406 10.092-36.221z"/><path d="m107.547 118.44c7.193 0 12.154-.6 12.746-.675 3.399-.432 6.075-3.108 6.508-6.507.231-1.816 5.393-44.719-16.93-67.044-7.562-7.562-17.615-11.727-28.308-11.727-10.694 0-20.748 4.165-28.309 11.727s-11.725 17.616-11.725 28.31 4.164 20.748 11.725 28.31c15.043 15.045 39.431 17.606 54.293 17.606zm-43.665-63.598c4.874-4.875 11.277-7.313 17.68-7.313 6.404 0 12.807 2.438 17.681 7.313 12.895 12.895 13.559 37.152 13.086 48.451-11.293.471-35.553-.191-48.447-13.087-9.75-9.749-9.75-25.613 0-35.364z"/><path d="m93.539 392.342c-1.814-.231-44.715-5.394-67.039 16.931-7.561 7.562-11.725 17.616-11.725 28.31s4.164 20.748 11.725 28.31c7.562 7.562 17.615 11.727 28.309 11.727 10.693 0 20.747-4.165 28.308-11.727 22.323-22.325 17.16-65.228 16.93-67.043-.432-3.4-3.109-6.076-6.508-6.508zm-21.05 62.923c-9.746 9.75-25.612 9.751-35.361 0-9.749-9.75-9.749-25.614 0-35.364 11.245-11.247 31.129-13.189 43.526-13.189 1.818 0 3.476.042 4.921.102.473 11.3-.19 35.556-13.086 48.451z"/><path d="m399.171 423.271c-3.399.432-6.075 3.108-6.508 6.507-.204 1.606-4.768 39.547 15.066 59.383 6.788 6.788 15.811 10.526 25.41 10.526s18.623-3.738 25.41-10.526c6.789-6.788 10.526-15.813 10.526-25.413 0-9.599-3.738-18.624-10.525-25.412-19.836-19.835-57.773-15.268-59.379-15.065zm48.752 55.263c-3.948 3.949-9.199 6.124-14.783 6.124s-10.835-2.175-14.783-6.124c-7.376-7.376-9.951-19.408-10.813-28.204-.472-4.818-.493-9.234-.383-12.561 3.329-.11 7.743-.089 12.561.384 8.795.862 20.827 3.437 28.203 10.813 3.948 3.949 6.123 9.2 6.123 14.784-.001 5.585-2.176 10.835-6.125 14.784z"/></g></g></svg>